<?xml version="1.0" standalone="no"?>
<!DOCTYPE svg PUBLIC "-//W3C//DTD SVG 20010904//EN"
 "http://www.w3.org/TR/2001/REC-SVG-20010904/DTD/svg10.dtd">
<svg version="1.0" xmlns="http://www.w3.org/2000/svg"
 width="616.000000pt" height="616.000000pt" viewBox="0 0 616.000000 616.000000"
 preserveAspectRatio="xMidYMid meet">
<metadata>
Created by potrace 1.11, written by Peter Selinger 2001-2013
</metadata>
<g transform="translate(0.000000,616.000000) scale(0.100000,-0.100000)"
fill="#000000" stroke="none">
<path d="M2766 6023 c-2 -2 -30 -6 -62 -8 -33 -2 -59 -5 -59 -5 0 -1 -16 -3
-35 -5 -19 -2 -51 -6 -70 -10 -19 -3 -48 -8 -65 -10 -35 -5 -70 -13 -70 -15 0
-1 -13 -3 -30 -5 -16 -2 -66 -13 -110 -25 -44 -12 -86 -24 -95 -25 -8 -2 -16
-4 -17 -5 -3 -3 -3 -3 -48 -15 -16 -4 -34 -10 -40 -14 -5 -3 -14 -6 -20 -7
-23 -5 -170 -59 -175 -65 -3 -3 -23 -12 -45 -19 -22 -7 -50 -20 -62 -28 -13
-8 -23 -11 -23 -7 0 4 -6 3 -12 -3 -7 -6 -47 -27 -88 -48 -41 -21 -87 -46
-102 -56 -16 -11 -28 -16 -28 -11 0 4 -4 4 -8 -2 -4 -5 -17 -16 -29 -22 -13
-7 -33 -19 -45 -25 -13 -7 -25 -15 -28 -18 -5 -5 -140 -97 -169 -115 -9 -5
-20 -16 -24 -22 -4 -7 -13 -13 -19 -13 -6 0 -20 -10 -32 -22 -12 -13 -48 -43
-80 -68 -66 -50 -294 -274 -341 -334 -16 -22 -40 -49 -52 -62 -13 -13 -23 -28
-23 -34 0 -5 -3 -10 -7 -10 -5 0 -19 -17 -33 -37 -14 -20 -29 -42 -35 -48 -5
-6 -14 -18 -20 -27 -5 -8 -28 -42 -50 -74 -22 -33 -49 -76 -60 -97 -11 -20
-23 -37 -27 -37 -5 0 -8 -5 -8 -10 0 -6 -18 -42 -39 -80 -22 -39 -38 -70 -36
-70 3 0 -9 -22 -25 -50 -16 -27 -27 -50 -24 -50 3 0 -1 -12 -10 -27 -22 -43
-46 -100 -46 -112 0 -6 6 -8 14 -5 7 3 16 -2 19 -10 4 -9 11 -16 17 -16 30 0
199 -164 279 -270 14 -19 28 -37 32 -40 9 -8 133 -201 155 -240 10 -19 22 -37
27 -38 4 -2 7 -12 7 -22 0 -10 4 -20 8 -22 8 -3 87 -161 140 -279 25 -56 84
-201 83 -206 0 -2 11 -28 24 -58 14 -31 25 -64 25 -75 0 -11 5 -20 10 -20 6 0
10 -10 10 -23 0 -13 3 -27 7 -31 5 -4 9 -12 9 -17 1 -5 3 -11 4 -14 1 -3 4 -9
5 -15 1 -5 3 -11 5 -12 1 -2 3 -10 5 -18 2 -8 9 -31 16 -50 11 -32 15 -47 20
-68 1 -4 10 -32 21 -62 10 -30 19 -56 19 -57 0 -2 1 -8 4 -15 2 -7 13 -49 25
-93 12 -44 24 -87 27 -95 3 -8 8 -26 10 -40 8 -45 10 -55 15 -70 10 -26 30
-104 33 -125 6 -35 16 -79 22 -100 7 -21 11 -38 18 -70 2 -11 6 -31 10 -45 3
-14 8 -34 9 -45 3 -17 16 -81 22 -107 1 -5 3 -9 4 -10 1 -2 3 -16 5 -33 1 -16
4 -31 5 -32 4 -4 6 -14 15 -78 5 -33 10 -62 10 -65 12 -43 15 -60 19 -85 2
-16 5 -30 6 -30 1 0 7 -47 14 -110 2 -20 6 -38 10 -42 3 -3 6 -25 6 -47 1 -50
16 -31 25 30 3 22 8 53 11 69 3 17 6 46 8 65 2 19 5 35 5 35 1 0 4 20 6 45 3
25 7 68 10 95 9 81 15 182 19 311 2 67 6 126 10 133 4 6 3 11 -3 11 -6 0 -7 8
-2 22 4 12 5 37 1 54 -5 20 -3 37 3 43 6 6 7 11 1 11 -5 0 -10 47 -11 108 -2
180 -8 312 -13 312 -3 0 -6 24 -8 53 -3 62 -5 78 -15 94 -4 6 -3 14 3 18 6 4
7 13 2 23 -5 9 -10 35 -11 57 -4 48 -9 89 -11 93 -4 3 -5 13 -14 72 -4 30 -9
62 -11 70 -1 8 -5 31 -9 50 -3 19 -8 46 -11 60 -3 14 -8 41 -11 60 -15 79 -70
312 -81 340 -3 8 -5 20 -4 27 1 6 -3 14 -8 18 -6 3 -8 12 -4 20 3 8 1 15 -4
15 -5 0 -10 11 -11 26 -1 14 -6 34 -12 44 -5 10 -10 28 -10 39 0 12 -5 21 -11
21 -6 0 -9 9 -6 20 3 11 1 20 -4 20 -5 0 -8 3 -7 8 2 10 -15 66 -42 132 -12
30 -22 56 -22 57 0 2 -2 12 -5 22 -3 11 -4 23 -3 27 1 4 -3 10 -10 14 -6 4
-13 13 -14 21 -2 8 -9 28 -15 44 -7 17 -19 46 -26 65 -7 19 -23 56 -34 82 -12
26 -22 50 -22 53 1 10 -204 410 -211 413 -5 2 -8 10 -8 18 0 8 -4 14 -10 14
-5 0 -10 8 -10 17 0 9 -8 25 -17 36 -17 18 -17 20 12 43 17 14 41 34 53 44 13
11 26 20 28 20 3 0 32 18 64 40 32 22 63 40 68 40 5 0 17 9 27 20 10 12 25 18
32 16 7 -3 13 -2 13 2 0 7 58 46 70 47 3 0 12 4 20 10 41 26 189 93 194 88 3
-4 6 -1 6 5 0 7 3 11 8 10 4 -1 21 4 37 11 37 15 48 18 58 20 4 0 21 8 37 16
17 9 30 13 30 9 0 -4 6 -1 13 5 8 6 22 12 33 14 10 2 26 7 34 10 23 9 85 27
109 32 11 3 29 7 39 10 48 13 110 27 132 30 14 2 25 4 25 5 0 3 93 20 135 25
14 2 25 4 25 5 0 1 20 4 45 6 25 2 81 7 125 11 123 11 535 6 535 -7 0 -3 12
-5 28 -6 31 -1 114 -11 152 -19 14 -3 39 -8 55 -10 37 -7 117 -35 130 -47 5
-4 17 -8 27 -8 10 0 18 -4 18 -10 0 -5 6 -10 14 -10 17 0 159 -70 167 -83 3
-5 9 -8 13 -8 3 0 16 -4 28 -9 13 -5 19 -9 13 -10 -5 0 6 -8 25 -18 33 -16
139 -83 163 -102 7 -6 37 -29 67 -52 30 -23 57 -45 58 -50 2 -4 7 -8 11 -8 16
0 187 -163 271 -257 61 -68 72 -82 146 -182 35 -47 68 -91 74 -98 5 -7 17 -28
27 -47 9 -20 21 -36 25 -36 5 0 6 -4 3 -10 -3 -5 -1 -10 4 -10 6 0 11 -6 11
-14 0 -8 3 -16 8 -18 4 -1 27 -43 52 -93 25 -49 48 -91 53 -93 4 -2 7 -10 7
-18 0 -8 9 -33 20 -54 11 -22 18 -40 14 -40 -3 0 1 -11 10 -25 9 -13 16 -31
16 -40 0 -8 5 -15 12 -15 6 0 9 -3 6 -6 -4 -3 4 -35 17 -70 13 -35 22 -64 20
-64 -2 0 5 -22 14 -48 10 -26 17 -56 15 -65 -1 -9 1 -17 6 -17 6 0 15 -38 23
-100 0 -3 4 -21 9 -40 11 -43 18 -92 23 -145 2 -22 4 -40 5 -40 13 0 19 -464
7 -525 -4 -19 -9 -57 -12 -85 -4 -46 -7 -68 -20 -135 -3 -14 -8 -38 -11 -55
-3 -16 -7 -34 -8 -40 -2 -5 -6 -23 -10 -40 -11 -43 -46 -167 -53 -185 -6 -15
-7 -19 -14 -50 -2 -8 -8 -18 -12 -21 -5 -3 -9 -12 -11 -20 -14 -86 -257 -542
-297 -557 -5 -2 -9 -8 -9 -14 0 -11 -55 -80 -135 -172 -26 -30 -116 -126 -119
-127 -2 -1 -39 -35 -82 -75 -43 -41 -86 -77 -96 -80 -10 -3 -18 -9 -18 -13 0
-4 -21 -23 -47 -41 -27 -19 -51 -39 -55 -44 -5 -7 -8 -7 -8 -1 0 6 -6 3 -13
-7 -7 -9 -32 -26 -55 -38 -23 -12 -42 -27 -42 -33 0 -6 -3 -7 -7 -4 -3 4 -11
3 -17 -2 -18 -15 -218 -121 -236 -126 -3 -1 -18 -7 -33 -13 -16 -7 -33 -12
-38 -12 -5 0 -9 -4 -9 -10 0 -5 -7 -7 -15 -4 -8 4 -15 2 -15 -3 0 -5 -21 -15
-47 -22 -27 -8 -52 -16 -58 -20 -5 -3 -15 -6 -22 -7 -7 -1 -44 -12 -82 -24
-39 -12 -75 -19 -80 -16 -5 4 -11 2 -13 -3 -1 -5 -19 -12 -38 -16 -56 -10 -73
-14 -100 -20 -41 -9 -112 -18 -157 -19 -24 0 -43 -4 -43 -8 0 -8 -420 -3 -470
6 -19 3 -53 8 -75 11 -22 3 -62 9 -90 15 -27 6 -61 13 -75 15 -42 8 -62 13
-132 34 -36 10 -69 17 -72 13 -3 -3 -6 0 -6 6 0 7 -3 11 -7 10 -5 0 -15 1 -23
4 -8 4 -51 19 -95 34 -44 15 -82 31 -85 35 -3 4 -14 9 -25 11 -11 1 -22 5 -25
8 -3 3 -34 19 -70 35 -36 17 -68 35 -72 40 -5 7 -8 7 -8 0 0 -7 -3 -7 -8 0 -4
6 -27 21 -52 34 -25 14 -48 29 -52 35 -4 6 -8 8 -8 4 0 -4 -44 23 -98 61 -129
89 -131 90 -112 65 27 -34 275 -278 315 -309 21 -16 52 -42 68 -57 17 -16 34
-28 38 -28 5 0 17 -10 29 -22 11 -12 20 -18 20 -14 0 4 10 -3 23 -14 32 -31
268 -170 367 -218 96 -46 283 -121 319 -128 13 -3 34 -10 45 -16 12 -6 22 -11
24 -10 1 1 3 2 5 1 1 0 9 -2 17 -4 39 -10 57 -15 88 -24 18 -5 35 -10 37 -10
3 -1 6 -1 8 -2 3 -1 28 -5 102 -18 33 -6 74 -13 90 -16 17 -3 59 -9 95 -13
114 -12 615 -6 615 8 0 1 11 3 25 5 38 4 95 14 147 26 27 6 57 12 68 15 11 2
34 7 50 11 17 4 32 7 35 8 3 0 11 4 18 8 6 5 12 6 12 2 0 -3 13 1 29 9 16 9
31 13 34 10 3 -3 13 -1 24 5 17 9 45 20 68 27 32 9 101 37 125 49 15 8 30 11
34 8 3 -4 6 -2 6 3 0 6 17 16 38 23 20 8 39 17 42 20 10 12 145 75 165 77 23
2 88 26 95 35 4 6 46 22 60 24 3 0 11 4 19 9 7 5 52 29 100 54 47 24 98 53
113 63 14 11 29 19 32 19 7 0 88 52 96 61 3 3 16 12 29 19 14 7 30 17 35 22 6
4 43 32 81 60 39 29 72 55 73 60 2 4 8 8 13 8 6 0 21 10 34 23 13 12 49 44 80
72 107 94 175 163 294 300 69 79 221 286 221 301 0 3 6 12 13 19 28 33 37 45
32 45 -3 0 6 17 20 37 14 21 25 43 25 50 0 7 5 13 10 13 6 0 10 7 10 15 0 8 4
15 10 15 5 0 9 3 8 8 -1 4 23 60 55 125 31 65 57 121 57 126 0 5 8 28 19 52
22 52 34 81 36 92 2 4 4 9 5 12 1 3 3 8 4 13 2 5 40 126 51 162 1 3 5 24 10
48 4 23 12 42 17 42 5 0 6 5 3 10 -4 6 -2 17 5 25 8 9 8 15 0 20 -7 4 -8 11
-2 18 6 7 13 32 17 57 4 25 9 54 12 65 2 11 6 38 9 60 3 22 7 42 10 44 2 2 -2
11 -9 19 -9 13 -9 14 1 8 13 -8 12 -8 15 92 1 28 4 52 7 52 8 0 5 354 -3 368
-5 7 -3 12 5 12 8 0 9 3 3 8 -5 4 -11 21 -11 37 -4 82 -9 145 -14 145 -3 0 -6
19 -8 43 -1 23 -7 65 -12 92 -5 28 -11 59 -13 70 -1 11 -6 26 -11 33 -4 7 -5
16 -2 19 3 3 -2 22 -10 41 -8 20 -13 41 -10 48 2 6 -1 22 -8 35 -7 13 -13 27
-14 32 -1 4 -3 9 -3 12 -1 3 -3 10 -4 15 -1 6 -3 11 -5 13 -1 1 -4 15 -6 32
-3 16 -10 35 -16 42 -6 8 -12 21 -13 31 -1 9 -4 25 -8 35 -11 27 -20 52 -22
57 -1 3 -7 19 -15 35 -24 55 -38 90 -45 113 -3 12 -10 22 -14 22 -4 0 -7 10
-8 22 -1 11 -6 24 -10 27 -4 3 -24 38 -43 76 -19 39 -38 72 -42 73 -5 2 -8 10
-8 17 0 7 -3 15 -7 17 -5 2 -17 21 -28 43 -11 22 -24 45 -30 52 -5 7 -16 19
-23 28 -7 8 -10 15 -7 15 3 0 1 6 -5 13 -6 6 -40 53 -77 102 -165 226 -342
409 -558 579 -27 22 -53 44 -56 49 -3 5 -10 8 -15 8 -5 0 -19 9 -32 19 -12 11
-25 20 -28 20 -3 0 -19 11 -36 25 -16 14 -35 25 -43 25 -7 0 -15 7 -19 15 -3
8 -10 15 -17 15 -6 0 -23 9 -39 20 -72 51 -310 171 -460 230 -59 24 -216 79
-240 85 -8 2 -42 11 -75 21 -33 9 -70 17 -82 18 -13 0 -23 4 -23 7 0 3 -6 6
-12 7 -7 0 -26 3 -43 7 -64 13 -181 33 -195 33 -8 0 -24 3 -35 5 -12 3 -52 8
-90 12 -39 3 -83 8 -98 11 -21 3 -27 1 -21 -8 6 -11 5 -11 -8 0 -11 9 -70 12
-226 10 -117 0 -214 -3 -216 -5z m-2240 -1511 c-17 -16 -18 -16 -5 5 7 12 15
20 18 17 3 -2 -3 -12 -13 -22z m-72 -89 c-33 -37 -69 -77 -81 -89 -13 -11 -19
-25 -15 -29 4 -5 1 -5 -6 -1 -9 6 -4 17 19 44 18 20 38 41 46 45 7 5 11 12 8
18 -4 5 1 9 9 9 9 0 16 4 16 9 0 12 43 61 54 61 5 0 -18 -30 -50 -67z m-120
-137 c-3 -8 -13 -17 -22 -21 -13 -5 -13 -2 3 15 21 24 26 25 19 6z m3856
-3790 c0 -2 -8 -10 -17 -17 -16 -13 -17 -12 -4 4 13 16 21 21 21 13z"/>
</g>
</svg>
